<svg width="60" height="60" viewBox="0 0 60 60" fill="none" xmlns="http://www.w3.org/2000/svg">
<g id="fork_spoon">
<mask id="mask0_168_1983" style="mask-type:alpha" maskUnits="userSpaceOnUse" x="0" y="0" width="60" height="60">
<rect id="Bounding box" width="60" height="60" fill="#D9D9D9"/>
</mask>
<g mask="url(#mask0_168_1983)">
<path id="fork_spoon_2" d="M14.3331 55.7707V32.7778C12.0963 32.1914 10.2944 30.9978 8.92739 29.1969C7.56043 27.396 6.87695 25.3647 6.87695 23.1031V5.51294H11.8477V20.5903H14.3331V5.51294H19.3039V20.5903H21.7892V5.51294H26.76V23.1031C26.76 25.3647 26.0765 27.396 24.7096 29.1969C23.3426 30.9978 21.5407 32.1914 19.3039 32.7778V55.7707H14.3331ZM39.1869 55.7707V31.8354C36.9501 31.0816 35.1482 29.5005 33.7812 27.0924C32.4142 24.6842 31.7308 21.9514 31.7308 18.8941C31.7308 15.1666 32.7042 12.0046 34.6511 9.40791C36.598 6.81126 38.9384 5.51294 41.6723 5.51294C44.4062 5.51294 46.7466 6.82173 48.6935 9.43933C50.6404 12.0569 51.6138 15.2294 51.6138 18.9569C51.6138 22.0142 50.9303 24.7365 49.5634 27.1238C48.1964 29.511 46.3945 31.0816 44.1577 31.8354V55.7707H39.1869Z" fill="#1C1B1F"/>
</g>
</g>
</svg>
